<svg width="32" height="32" viewBox="0 0 32 32" xmlns="http://www.w3.org/2000/svg">
  <defs>
    <linearGradient id="faviconGradient" x1="0%" y1="0%" x2="100%" y2="100%">
      <stop offset="0%" style="stop-color:#007bff;stop-opacity:1" />
      <stop offset="50%" style="stop-color:#28a745;stop-opacity:1" />
      <stop offset="100%" style="stop-color:#20c997;stop-opacity:1" />
    </linearGradient>
    
    <linearGradient id="iconGradient" x1="0%" y1="0%" x2="100%" y2="100%">
      <stop offset="0%" style="stop-color:#28a745;stop-opacity:1" />
      <stop offset="100%" style="stop-color:#20c997;stop-opacity:1" />
    </linearGradient>
    
    <filter id="shadow" x="-20%" y="-20%" width="140%" height="140%">
      <feDropShadow dx="1" dy="1" stdDeviation="1" flood-color="#000000" flood-opacity="0.3"/>
    </filter>
  </defs>
  
  <!-- Fundo circular -->
  <circle cx="16" cy="16" r="15" fill="url(#faviconGradient)"/>
  
  <!-- Engrenagem -->
  <circle cx="16" cy="16" r="10" fill="url(#iconGradient)" filter="url(#shadow)"/>
  
  <!-- Dentes da engrenagem -->
  <g stroke="#ffffff" stroke-width="1.5" fill="none">
    <path d="M 16 6 L 16 8 M 16 24 L 16 26"/>
    <path d="M 6 16 L 8 16 M 24 16 L 26 16"/>
    <path d="M 8 8 L 10 10 M 22 22 L 24 24"/>
    <path d="M 8 24 L 10 22 M 22 10 L 24 8"/>
  </g>
  
  <!-- Círculo interno -->
  <circle cx="16" cy="16" r="4" fill="#ffffff"/>
  
  <!-- Folha de sustentabilidade -->
  <path d="M 14 14 Q 16 12 18 14 Q 16 16 14 14" fill="#28a745"/>
  <path d="M 15 15 Q 16 14 17 15" stroke="#28a745" stroke-width="0.5" fill="none"/>
</svg> 